<svg id="Layer_1" data-name="Layer 1" xmlns="http://www.w3.org/2000/svg" xmlns:xlink="http://www.w3.org/1999/xlink" viewBox="0 0 792.35 341.34"><defs><style>.cls-1,.cls-6{fill:none;}.cls-2{clip-path:url(#clip-path);}.cls-3{fill:#3eff47;}.cls-4{fill:#ff40d7;}.cls-5{fill:#fff;}.cls-6{stroke:#0b006b;stroke-miterlimit:10;stroke-width:10px;}</style><clipPath id="clip-path" transform="translate(-556.87 -338.26)"><rect class="cls-1" width="1920" height="1080"/></clipPath></defs><title>LOGO_clean</title><g class="cls-2"><polygon class="cls-3" points="509.45 0 315.26 336.34 703.64 336.34 509.45 0"/><polygon class="cls-4" points="229.34 335.86 422.98 0.48 35.71 0.48 229.34 335.86"/><polygon class="cls-5" points="167.94 331.14 89.54 331.14 6.74 57.54 93.54 57.54 131.54 195.14 175.54 57.54 263.14 57.54 167.94 331.14"/><polygon class="cls-6" points="167.94 331.14 89.54 331.14 6.74 57.54 93.54 57.54 131.54 195.14 175.54 57.54 263.14 57.54 167.94 331.14"/><g class="cls-2"><path class="cls-5" d="M950.4,669.4l-36.8-80.8v80.8H828V476.2h29.42L828,395.8H950.8q43.59,0,71.2,27.6,28,27.6,28,71.2,0,57.2-44.8,86.4l47.6,88.4ZM934,475.4H913.6v45.2H934q29.19,0,29.2-22,0-23.21-29.2-23.2" transform="translate(-556.87 -338.26)"/><path class="cls-6" d="M950.4,669.4l-36.8-80.8v80.8H828V476.2h29.42L828,395.8H950.8q43.59,0,71.2,27.6,28,27.6,28,71.2,0,57.2-44.8,86.4l47.6,88.4ZM934,475.4H913.6v45.2H934q29.19,0,29.2-22Q963.2,475.4,934,475.4Z" transform="translate(-556.87 -338.26)"/><path class="cls-5" d="M1307,428.2l-61.2,64.8q-10.8-5.6-14.8-7.2-18-7.59-32.4-7.6-24.4,0-40.8,16.4-16,16-16,40.4,0,25.61,17.6,40.8,17.19,14.81,43.6,14.8,24,0,37.2-19.2l-25.6-70.8h128l1.2,16.4a40.67,40.67,0,0,1,.4,5.6v5.2q0,58.8-41.6,102.8t-100,44q-62.8,0-105.2-40.4-42-40.8-42-103.6,0-60.8,47.6-102.4,42.39-37.59,93.2-37.6c17.86,0,55.45,8.58,71.79,16,16.12,7.29,39,21.63,39,21.63" transform="translate(-556.87 -338.26)"/><path class="cls-6" d="M1307,428.2l-61.2,64.8q-10.8-5.6-14.8-7.2-18-7.59-32.4-7.6-24.4,0-40.8,16.4-16,16-16,40.4,0,25.61,17.6,40.8,17.19,14.81,43.6,14.8,24,0,37.2-19.2l-25.6-70.8h128l1.2,16.4a40.67,40.67,0,0,1,.4,5.6v5.2q0,58.8-41.6,102.8t-100,44q-62.8,0-105.2-40.4-42-40.8-42-103.6,0-60.8,47.6-102.4,42.39-37.59,93.2-37.6c17.86,0,55.45,8.58,71.79,16C1284.13,413.86,1307,428.2,1307,428.2Z" transform="translate(-556.87 -338.26)"/></g></g></svg>